<?xml version="1.0" encoding="UTF-8" standalone="no"?>
<!-- Created with Inkscape (http://www.inkscape.org/) -->

<svg
   xmlns:dc="http://purl.org/dc/elements/1.1/"
   xmlns:cc="http://creativecommons.org/ns#"
   xmlns:rdf="http://www.w3.org/1999/02/22-rdf-syntax-ns#"
   xmlns:svg="http://www.w3.org/2000/svg"
   xmlns="http://www.w3.org/2000/svg"
   xmlns:sodipodi="http://sodipodi.sourceforge.net/DTD/sodipodi-0.dtd"
   xmlns:inkscape="http://www.inkscape.org/namespaces/inkscape"
   version="1.1"
   width="256"
   height="256"
   id="svg2"
   inkscape:version="0.48.4 r9939"
   sodipodi:docname="powerbutton.svg">
  <sodipodi:namedview
     pagecolor="#ffffff"
     bordercolor="#666666"
     borderopacity="1"
     objecttolerance="10"
     gridtolerance="10"
     guidetolerance="10"
     inkscape:pageopacity="0"
     inkscape:pageshadow="2"
     inkscape:window-width="1355"
     inkscape:window-height="781"
     id="namedview25"
     showgrid="false"
     inkscape:zoom="1.18"
     inkscape:cx="282.04572"
     inkscape:cy="225.67244"
     inkscape:window-x="0"
     inkscape:window-y="31"
     inkscape:window-maximized="0"
     inkscape:current-layer="svg2" />
  <defs
     id="defs4" />
  <metadata
     id="metadata7">
    <rdf:RDF>
      <cc:Work
         rdf:about="">
        <dc:format>image/svg+xml</dc:format>
        <dc:type
           rdf:resource="http://purl.org/dc/dcmitype/StillImage" />
        <dc:title />
      </cc:Work>
    </rdf:RDF>
  </metadata>
  <g
     transform="matrix(0.3268431,0,0,0.32449899,-1.6955959,-2.2917522)"
     id="g3109">
    <path
       d="m 378.84709,784.14374 c -25.5246,-2.22076 -35.7626,-3.58973 -52.57009,-7.02928 C 277.75584,767.18502 230.97112,747.12105 189.65929,718.52502 98.130681,655.16891 38.627582,553.26647 27.39501,440.63815 16.465186,331.04548 48.993629,225.80592 119.08332,143.99814 c 11.90965,-13.9008 31.6599,-33.20742 46.27662,-45.237176 77.98172,-64.179976 179.78927,-93.9287073 279.44253,-81.654657 140.45469,17.299464 259.2685,113.570313 307.5354,249.185553 16.78142,47.15073 24.19469,96.64164 22.24681,148.52003 -1.57529,41.95581 -8.49395,78.94571 -21.83464,116.73683 -39.29315,111.3083 -126.46308,197.64949 -236.49591,234.24761 -26.50832,8.81697 -51.72318,14.17579 -81.28712,17.27572 -8.45283,0.88632 -49.28769,1.66609 -56.11992,1.07169 z"
       id="path3147"
       style="fill:#f0f0ee"
       inkscape:connector-curvature="0" />
    <path
       d="M 380.87203,783.87295 C 303.01388,779.81102 228.16576,750.80193 166.61098,700.83122 142.94005,681.61497 118.35844,655.76201 100.56566,631.37012 56.5122,570.97775 31.556717,501.84588 26.529913,426.27572 25.756633,414.65066 25.754847,384.90341 26.526699,372.74031 33.608485,261.14311 87.600418,158.78766 174.7815,91.685571 226.07224,52.207787 287.77351,26.405478 351.08003,17.960843 372.4383,15.111802 400.80813,14.004772 420.79239,15.24057 483.5276,19.120023 541.47603,37.433876 594.35918,70.094104 693.49381,131.3189 759.34395,236.59077 772.231,354.45021 c 2.63613,24.10945 3.0196,58.43087 0.91012,81.46531 -9.62173,105.06483 -59.29862,199.55502 -139.19807,264.76812 -71.4831,58.34369 -161.58584,87.96223 -253.07102,83.18931 z m -94.94024,-410.8274 c 2.09713,-6.99972 6.06488,-16.74941 8.35868,-20.53922 5.59453,-9.24328 10.94745,-17.04391 14.66725,-21.3741 8.88094,-10.33819 18.56162,-18.68736 29.5158,-25.45607 l 5.37093,-3.31876 0.45146,-30.55803 c 0.2483,-16.80692 0.3124,-30.69991 0.14245,-30.87332 -0.16994,-0.17341 -2.58608,0.56252 -5.36918,1.63539 -43.64241,16.82401 -78.74112,50.51804 -98.05988,94.13548 -4.35488,9.83234 -10.40011,29.87154 -12.25813,40.63419 l -0.38315,2.21942 27.85335,-0.15327 27.85335,-0.15326 1.85707,-6.19845 z m 142.77959,-80.87499 c 0.0597,-48.05273 0.12475,-88.09913 0.14464,-88.992 l 0.0362,-1.6234 -28.63852,0 -28.63852,0 0.005,16.08644 c 0.003,8.84755 0.0679,48.89395 0.14464,88.99201 l 0.13944,72.90555 28.34924,0 28.34924,0 0.10848,-87.3686 z m 143.11008,86.04036 c -4.89696,-22.79357 -8.35921,-33.2804 -16.26168,-49.25521 -16.81528,-33.99196 -43.28893,-60.9867 -76.91179,-78.42567 -6.95445,-3.60702 -17.12258,-8.04143 -21.55121,-9.39866 l -1.30175,-0.39895 0,30.66412 0,30.66413 5.35164,3.26796 c 20.29355,12.39218 37.49356,31.46001 47.58442,52.75181 2.48047,5.2338 7.23376,18.74579 7.23376,20.5631 0,0.78829 3.36377,0.89561 28.07098,0.89561 l 28.07099,0 -0.28536,-1.32824 z"
       id="path3145"
       style="fill:#ededeb"
       inkscape:connector-curvature="0" />
    <path
       d="m 386.07904,784.14964 c -18.10066,-0.95929 -31.86749,-2.42153 -47.15231,-5.00823 C 268.59338,767.23862 203.73597,735.43745 150.02821,686.51983 141.14788,678.43151 124.0635,660.58175 116.11785,651.09021 65.224923,590.29585 35.342183,518.36844 27.335172,437.39134 26.10162,424.91609 25.588848,388.83884 26.445785,374.81653 33.881151,253.14952 94.831888,145.04382 193.70918,78.148627 325.32897,-10.898417 498.26986,-5.7376456 624.63999,91.00814 c 18.36423,14.05919 39.6758,33.99663 54.43355,50.92385 34.2817,39.32123 59.39207,83.20321 75.57503,132.07217 12.92957,39.04432 18.92369,74.75436 19.74605,117.63673 1.26617,66.02471 -11.91993,125.93705 -40.34178,183.29696 -59.03741,119.14716 -174.80068,198.03557 -305.73922,208.35009 -8.57569,0.67557 -35.41486,1.22316 -42.23458,0.8617 z m 24.29935,-197.42138 c 35.21086,-2.291 66.66963,-14.0087 94.33854,-35.13902 56.25293,-42.95951 81.78262,-115.77438 65.02115,-185.45119 -11.98171,-49.80754 -45.74325,-92.73452 -91.37937,-116.18665 -6.5486,-3.36528 -22.05342,-9.75635 -22.69205,-9.35363 -0.2476,0.15615 -0.45019,14.09427 -0.45019,30.9736 l 0,30.68969 1.78626,1.00561 c 0.98246,0.5531 4.4321,2.75217 7.66587,4.88684 22.62114,14.93256 40.13293,37.73846 48.43684,63.08011 9.28936,28.34901 8.01352,58.05383 -3.68808,85.86792 -6.00421,14.2717 -13.86577,25.97773 -25.24098,37.58442 -8.03255,8.19599 -14.40422,13.29598 -23.57616,18.87074 -20.35411,12.37133 -45.59844,18.46963 -68.59099,16.5696 -23.68848,-1.95754 -45.09502,-10.10473 -63.42864,-24.14052 -5.54143,-4.24239 -15.9472,-14.4477 -20.42272,-20.02929 -19.77906,-24.66722 -29.7786,-58.02263 -26.50491,-88.41231 4.14456,-38.47399 24.63451,-71.24305 57.38406,-91.77288 l 5.38599,-3.37634 0.14975,-31.07793 0.14975,-31.07794 -5.35676,1.98544 c -16.37804,6.07036 -33.54764,15.94416 -48.00545,27.6067 -7.65006,6.17101 -22.09445,20.91189 -28.1523,28.73014 -7.70232,9.94064 -13.744,19.76987 -19.47585,31.68537 -9.42518,19.59327 -13.88364,34.50743 -16.85326,56.37636 -1.40707,10.36202 -1.39243,33.95536 0.0276,44.56979 2.82601,21.12283 7.84229,38.00119 16.8429,56.67153 26.39537,54.75299 79.62213,92.49104 138.56898,98.24614 12.89148,1.25862 16.86515,1.3461 28.05997,0.6177 z m 18.41808,-253.62777 c 0.21174,-43.39871 0.38498,-90.81683 0.38498,-105.37362 l 0,-26.46688 -28.92779,0 -28.9278,0 0,70.74215 c 0,38.90818 0.17283,86.32631 0.38408,105.37362 l 0.38407,34.63146 28.15874,0 28.15873,0 0.38499,-78.90673 z"
       id="path3143"
       style="fill:#e4f0d7"
       inkscape:connector-curvature="0" />
    <path
       d="M 377.97925,783.54024 C 338.23986,780.40105 307.02303,773.83642 273.83918,761.64059 165.82584,721.94308 81.545119,634.03043 45.330018,523.28412 31.424681,480.7614 25.081484,436.87407 26.132493,390.46024 27.315526,338.21605 37.267733,291.20772 56.980875,244.75075 105.88087,129.5106 208.15365,45.743732 329.09127,21.877787 c 47.47418,-9.368598 96.09991,-9.275652 143.45916,0.274218 130.49744,26.314471 237.69333,121.494615 281.1688,249.652225 21.91402,64.59848 26.60964,136.83704 13.33439,205.13911 -22.13498,113.88571 -94.63625,211.92759 -195.83668,264.82562 -43.00045,22.47658 -86.29342,35.46864 -135.67137,40.71459 -8.50522,0.90362 -49.88813,1.66325 -57.56632,1.05669 z M 425.42084,585.5951 c 37.97307,-5.89625 71.55707,-23.13443 98.36788,-50.49078 26.81896,-27.36467 43.58195,-61.29926 49.58041,-100.36946 1.09563,-7.13617 1.27018,-10.68263 1.27843,-25.97444 0.0107,-19.87897 -0.71281,-26.64645 -4.54415,-42.50365 -12.05801,-49.90586 -44.9959,-92.14798 -90.26172,-115.7587 -8.95894,-4.67299 -21.90227,-10.27641 -23.73747,-10.27641 -0.78676,0 -0.88775,3.54822 -0.88775,31.19078 l 0,31.19078 5.17009,3.1226 c 28.26644,17.07222 48.7789,45.76172 55.79372,78.0352 6.80276,31.29781 0.33421,65.75551 -17.35298,92.43854 -16.39,24.7261 -41.39158,42.88377 -68.80286,49.96882 -11.23457,2.90382 -16.49149,3.53123 -29.77078,3.55312 -14.14895,0.0233 -22.27107,-1.10271 -33.91698,-4.70221 -26.72058,-8.25875 -50.09472,-25.99996 -65.28476,-49.55177 -9.80021,-15.195 -16.2235,-32.89227 -18.58827,-51.21391 -1.13872,-8.82243 -0.84267,-27.56357 0.55539,-35.15766 6.49406,-35.27525 26.66821,-64.97689 56.54851,-83.2542 l 4.97999,-3.04619 0.37165,-3.62811 c 0.20441,-1.99546 0.37165,-16.07459 0.37165,-31.28695 0,-24.53982 -0.10071,-27.65884 -0.8931,-27.65884 -1.51947,0 -11.77609,4.11079 -19.14493,7.67317 -17.38598,8.40504 -32.86986,19.38847 -46.99442,33.33528 -45.063,44.49591 -63.07146,109.58537 -47.53372,171.80493 7.89897,31.63077 25.14263,61.93909 47.89066,84.17504 28.76858,28.12096 63.02257,44.48688 103.12454,49.27097 10.05837,1.19994 33.28073,0.72894 43.68097,-0.88595 z m 3.76061,-278.37116 c 0.16354,-59.40327 0.0699,-105.39921 -0.21547,-105.81637 -0.39198,-0.57303 -6.74803,-0.73791 -28.44657,-0.73791 -15.36799,0 -28.33118,0.15246 -28.80708,0.3388 -0.76499,0.29953 -0.83221,12.49539 -0.58004,105.22603 0.15688,57.68798 0.38756,105.22181 0.51262,105.63072 0.17961,0.5873 6.21657,0.71131 28.73733,0.59033 l 28.50994,-0.15315 0.28927,-105.07845 z"
       id="path3141"
       style="fill:#daedc6"
       inkscape:connector-curvature="0" />
    <path
       d="m 376.82214,783.31604 c -84.38596,-6.11657 -160.3911,-38.14815 -223.3226,-94.11688 -13.77229,-12.24855 -33.2867,-33.07321 -44.9962,-48.01743 C 75.507899,599.07148 51.044923,549.31016 38.090836,497.95235 23.120084,438.59926 22.119749,372.85402 35.278663,313.12722 59.822191,201.72697 131.81388,107.48684 231.65925,56.05683 273.30017,34.607731 315.22658,22.191594 364.67247,16.666131 c 13.30748,-1.487079 57.74315,-1.482808 71.16238,0.0068 49.46865,5.491446 91.04597,17.871039 133.35714,39.706913 80.92147,41.761806 143.58509,111.454446 178.01895,197.987476 4.50279,11.31561 11.80011,33.9185 14.87294,46.0678 4.97118,19.65498 8.38281,39.20287 10.50877,60.21349 1.26774,12.52834 1.7749,51.30276 0.85835,65.62166 -7.21656,112.74308 -61.87193,215.37005 -150.4533,282.50762 -55.16612,41.81148 -118.73747,66.57416 -189.1878,73.69352 -11.0305,1.11466 -46.09243,1.63433 -56.98776,0.84459 z m 33.19799,-195.98963 c 46.97663,-2.91519 87.87585,-22.85535 120.06344,-58.5362 41.49176,-45.99478 55.96621,-113.9921 37.05835,-174.09082 -12.90029,-41.00361 -40.16217,-76.06084 -76.63353,-98.54634 -10.97911,-6.7689 -33.72968,-17.21171 -35.31678,-16.21087 -0.34114,0.21512 -0.55369,12.2057 -0.55369,31.23428 0,26.8707 0.11394,30.98161 0.87661,31.62744 0.48213,0.40828 3.4719,2.36676 6.64393,4.35217 16.98131,10.62882 32.30222,26.94183 41.92295,44.63766 21.27087,39.12444 19.11254,86.87025 -5.63064,124.55928 -8.43069,12.84169 -19.82638,24.40805 -32.82741,33.31903 -6.59396,4.51954 -20.83917,11.60829 -28.48332,14.17397 -36.69405,12.31594 -77.09783,5.4317 -108.19501,-18.43494 -6.7384,-5.17162 -16.64483,-14.9531 -21.40515,-21.13519 -14.21053,-18.45474 -23.04713,-40.72035 -25.26643,-63.66384 -4.438,-45.88073 17.95161,-90.52068 57.47051,-114.58356 l 5.54688,-3.37747 0,-31.50984 c 0,-19.63631 -0.20832,-31.50983 -0.55285,-31.50983 -0.99215,0 -13.48543,5.09464 -19.30068,7.87063 -28.20518,13.46415 -53.77224,35.9683 -71.03329,62.52358 -15.40732,23.70339 -24.26816,47.78318 -28.07766,76.30239 -1.41917,10.62444 -1.43222,34.21831 -0.0246,44.56979 2.81103,20.67276 7.62312,37.40189 15.79202,54.90054 27.38405,58.65963 83.8474,97.60412 147.16737,101.50584 10.68336,0.6583 10.5131,0.65812 20.75903,0.0223 z M 429.31608,361.0914 c 0.074,-28.32838 0.13914,-75.94575 0.14464,-105.81636 l 0.01,-54.31021 -29.21707,0 -29.21708,0 -0.18086,69.06842 c -0.0995,37.98763 -0.003,85.60499 0.21409,105.81636 l 0.39493,36.74794 28.85836,0 28.85835,0 0.13463,-51.50615 z M 462.15914,61.337036 c -4.30392,-1.034801 -21.57991,-3.531065 -31.24202,-4.514262 -14.18626,-1.443567 -47.14066,-1.443567 -61.32693,0 -9.66211,0.983197 -26.9381,3.479461 -31.24202,4.514262 -1.11372,0.267774 26.74375,0.486862 61.90549,0.486862 35.16173,0 63.0192,-0.219088 61.90548,-0.486862 z"
       id="path3139"
       style="fill:#d4f0b8"
       inkscape:connector-curvature="0" />
    <path
       d="m 384.63265,783.57047 c -29.59083,-1.99319 -46.33781,-4.31908 -68.26961,-9.48168 C 272.56309,763.77859 231.48824,745.76206 193.7547,720.30958 129.0316,676.65179 79.07067,613.1615 51.232647,539.19276 38.94041,506.5309 31.605624,474.69917 27.911215,437.98167 26.64782,425.42521 26.144831,387.18988 27.055819,372.95773 32.560581,286.95806 65.744374,205.90649 121.36048,142.61815 c 8.3183,-9.46581 25.90526,-27.16692 34.16401,-34.38575 55.13979,-48.196765 120.70208,-78.758255 191.05311,-89.058327 20.55965,-3.010132 28.63213,-3.542968 53.67606,-3.542968 25.14088,0 33.33507,0.545105 53.8057,3.579343 65.69567,9.737672 127.81591,37.283819 179.72754,79.697088 77.80981,63.572814 127.52293,156.171014 138.14377,257.313654 3.07659,29.29859 2.61345,68.24137 -1.14785,96.51869 -9.54357,71.74834 -38.19228,138.26449 -83.51028,193.89312 -41.5789,51.03884 -96.42763,90.48417 -158.29018,113.83686 -30.27292,11.42781 -63.09502,18.86766 -96.90813,21.96629 -9.4952,0.87015 -40.39523,1.60894 -47.44158,1.13432 z m 27.4814,-196.26773 c 34.953,-2.66487 66.25214,-14.57107 93.64766,-35.62359 55.98577,-43.02315 81.49188,-116.59812 64.54995,-186.20107 -12.44057,-51.10996 -47.38161,-94.57443 -94.55645,-117.62233 -8.17621,-3.99459 -18.57752,-8.22441 -20.22419,-8.22441 -0.79394,0 -0.8931,3.49848 -0.8931,31.50983 l 0,31.50984 5.54688,3.37747 c 20.4706,12.46446 36.50226,30.25091 46.837,51.9637 12.49466,26.25069 14.89787,55.7291 6.87015,84.27131 -5.8637,20.84811 -16.52001,38.65277 -32.41585,54.16069 -18.05837,17.61768 -39.87113,28.3882 -65.09713,32.1431 -8.06601,1.20062 -23.94449,1.19657 -32.41059,-0.008 -39.3813,-5.60451 -73.00776,-30.76529 -90.44095,-67.67185 -15.68866,-33.21335 -15.58757,-71.10825 0.27765,-104.07564 6.30012,-13.09142 13.448,-22.91811 24.69058,-33.94388 7.20129,-7.06241 12.99953,-11.61776 21.13784,-16.60679 2.63422,-1.61487 4.9605,-3.12139 5.16949,-3.34783 0.20899,-0.22644 0.46934,-14.48737 0.57856,-31.69096 0.18339,-28.88791 0.12446,-31.29382 -0.77086,-31.46981 -1.04657,-0.20573 -11.21455,3.73783 -18.70147,7.25319 -22.77468,10.69349 -46.21543,29.4598 -62.4905,50.02896 -10.93498,13.8201 -22.50987,34.83915 -28.35687,51.49371 -10.76355,30.65887 -12.9603,64.46384 -6.33084,97.42299 5.41649,26.9287 17.509,52.90099 35.10308,75.39433 5.97189,7.63482 18.63974,20.56329 26.19693,26.73588 34.7556,28.38777 78.75857,42.52454 122.08303,39.22143 z m 17.26278,-196.93912 c 0.21075,-12.22866 0.38318,-59.88401 0.38318,-105.90078 0,-75.74866 -0.0866,-83.70077 -0.91515,-84.02518 -1.48046,-0.57967 -56.56719,-0.39447 -57.47732,0.19323 -0.71172,0.45958 -0.80532,15.11439 -0.67576,105.79443 0.0827,57.89352 0.27459,105.46598 0.42638,105.71659 0.15179,0.2506 13.23587,0.45564 29.07573,0.45564 l 28.79975,0 0.38319,-22.23393 z M 553.57098,93.837011 C 551.38697,92.119238 537.40533,84.889422 529.56091,81.421561 447.00343,44.924517 342.48853,46.458892 262.58108,85.34107 c -7.28005,3.542401 -16.80186,8.881254 -16.80186,9.420755 0,0.131484 69.57858,0.233151 154.61908,0.225931 152.78518,-0.01299 154.60192,-0.02662 153.17268,-1.150745 z"
       id="path3137"
       style="fill:#c9eda7"
       inkscape:connector-curvature="0" />
    <path
       d="M 382.74663,783.3269 C 277.62163,777.99098 180.40845,728.68734 113.28247,646.66275 66.53279,589.53697 36.938417,518.9609 28.871336,445.36077 26.895224,427.33169 26.333569,413.75481 26.673447,392.23122 27.107601,364.73739 29.093468,345.37558 34.03,320.50632 52.20105,228.96419 103.38711,146.71153 176.93106,90.873616 261.51518,26.653515 368.34781,1.8808772 471.99459,22.453497 498.53734,27.721908 528.3789,37.375286 552.99243,48.655299 674.90099,104.5242 758.1324,222.0035 771.94132,357.69701 c 3.5403,34.789 2.37827,73.56969 -3.22823,107.73493 -17.10894,104.25961 -76.1876,196.9813 -162.49351,255.02723 -48.82246,32.83607 -103.59833,53.35742 -161.41711,60.47365 -19.14578,2.35647 -43.94676,3.31328 -62.05584,2.39408 z m 31.68165,-196.01856 c 77.13183,-6.71651 140.32116,-62.98567 157.08453,-139.88142 3.72832,-17.10226 5.03011,-40.21892 3.22151,-57.20601 -2.30811,-21.67865 -7.24709,-39.29345 -16.49345,-58.82358 -12.37369,-26.13571 -30.02425,-47.94914 -53.26859,-65.83199 -11.47316,-8.82678 -29.65899,-19.05273 -42.23458,-23.74864 -7.78551,-2.90723 -7.91502,-2.93779 -8.28468,-1.95486 -0.17707,0.47081 -0.16603,14.86058 0.0245,31.97726 l 0.34645,31.12125 1.69323,0.95113 c 0.93128,0.52313 4.33905,2.69696 7.57283,4.83073 27.7585,18.31612 47.00099,47.59535 52.73564,80.24221 1.52296,8.67009 1.81149,25.17182 0.60906,34.83437 -3.8729,31.12203 -19.34208,59.43684 -43.11925,78.92553 -48.01039,39.35118 -116.98442,34.80448 -159.41659,-10.50859 -37.20215,-39.72794 -43.53974,-99.43867 -15.45264,-145.58985 10.27941,-16.89059 26.22005,-32.46006 42.82667,-41.82952 1.68703,-0.95182 3.18479,-2.25382 3.34223,-2.90538 0.1569,-0.64936 0.21321,-14.99434 0.12512,-31.87773 l -0.16017,-30.69708 -1.42978,0.16377 c -2.26637,0.25959 -14.09173,5.24731 -22.12835,9.33332 -45.18219,22.97173 -78.86983,64.99631 -91.52605,114.17671 -4.00622,15.56764 -5.58424,28.28849 -5.60212,45.16012 -0.0439,41.45164 13.07892,80.06753 38.21641,112.45755 6.07227,7.8242 19.91926,21.95433 27.62404,28.18887 35.12271,28.42055 79.77628,42.31611 123.694,38.49183 z m 14.61437,-174.85837 c 0.64749,-0.82176 1.36602,-210.70939 0.72496,-211.76776 -0.25146,-0.41514 -9.90993,-0.56428 -29.84069,-0.46076 l -29.46889,0.15305 0.23053,105.96394 c 0.16591,76.25934 0.40919,106.08552 0.86784,106.39765 0.35051,0.23854 13.29749,0.43778 28.77106,0.44275 21.8199,0.007 28.26424,-0.15657 28.71519,-0.72887 z M 599.74363,126.41043 c -1.69905,-2.37892 -11.37627,-10.53024 -19.84835,-16.71867 -35.74433,-26.109467 -80.83985,-43.937484 -129.59653,-51.234568 -28.47291,-4.261348 -61.93448,-4.709847 -90.83329,-1.217476 -49.93963,6.035116 -95.79169,22.745346 -133.35714,48.600404 -9.29205,6.3954 -22.90588,17.45206 -25.38267,20.61486 -0.75021,0.95801 10.25853,1.01397 199.48997,1.01397 192.4757,0 200.25456,-0.0413 199.52801,-1.05852 z"
       id="path3135"
       style="fill:#c2ea9a"
       inkscape:connector-curvature="0" />
    <path
       d="M 391.57532,783.50512 C 269.25201,780.72207 155.63009,716.50816 88.218733,612.06177 54.057258,559.13241 33.547259,499.09648 27.941275,435.62036 25.938725,412.94563 26.213272,379.48382 28.587885,356.81152 39.261991,254.89744 89.195069,162.00589 167.52413,98.34552 258.93772,24.050974 379.74409,-2.2682975 493.11189,27.411908 595.67343,54.262983 682.26804,124.37771 731.51674,220.44566 c 18.71577,36.50832 32.19618,78.72292 38.07905,119.24634 8.92631,61.48795 4.01292,123.95915 -14.23074,180.93564 -15.57623,48.64591 -39.34354,91.50674 -72.99924,131.64323 -6.67104,7.95562 -29.50479,31.26208 -37.38299,38.15682 -71.31192,62.41028 -160.556,95.18992 -253.4075,93.07743 z m 33.28519,-197.25957 c 32.36388,-5.06502 60.10356,-17.3418 85.31878,-37.75963 7.29313,-5.90557 21.21627,-20.16253 27.13214,-27.78267 21.47138,-27.65695 34.16057,-59.69259 37.64238,-95.03344 0.87718,-8.9035 0.74037,-28.09057 -0.26371,-36.98418 -6.2369,-55.24318 -36.73325,-103.585 -83.89244,-132.98352 -10.81018,-6.73895 -33.81824,-17.25116 -35.93961,-16.42055 -0.66142,0.25897 -0.79828,4.50117 -0.79634,24.6823 10e-4,13.40326 0.16863,27.696 0.37187,31.76164 l 0.36953,7.39206 4.69049,2.8135 c 15.50446,9.30006 29.415,22.67138 39.33459,37.80987 9.83996,15.01695 16.28608,32.56721 18.65261,50.78378 1.1067,8.51892 0.80064,24.57775 -0.63697,33.42138 -7.25659,44.63974 -37.77552,81.19277 -79.56259,95.29347 -30.35566,10.24327 -62.25753,7.75209 -90.83329,-7.09305 -34.81712,-18.08755 -58.39917,-52.49714 -63.39628,-92.50427 -1.4053,-11.25084 -0.89259,-27.45861 1.18972,-37.60947 6.90131,-33.64265 26.94776,-62.24885 55.98709,-79.89332 l 5.64092,-3.42745 0,-31.55886 c 0,-27.02713 -0.12049,-31.60604 -0.83908,-31.88739 -1.065,-0.417 -15.48828,5.44375 -23.46027,9.53283 -43.45459,22.28918 -76.20714,62.29067 -90.01157,109.93332 -8.0534,27.79436 -9.06092,60.01833 -2.77316,88.69502 5.79809,26.44349 17.78955,52.1329 34.13229,73.12194 2.4354,3.12779 8.75291,10.08268 14.0389,15.4553 29.10144,29.57835 65.15954,46.88783 106.85347,51.2944 8.65295,0.91451 32.36525,0.30626 41.05053,-1.05301 z m 5.05326,-279.01436 c 0.24367,-58.11384 0.31603,-105.99927 0.16078,-106.41206 -0.22431,-0.59643 -6.3737,-0.71913 -29.9494,-0.59758 l -29.66712,0.15295 0.20243,105.96394 c 0.11133,58.28017 0.32344,106.16563 0.47135,106.41213 0.14791,0.2465 13.33467,0.37933 29.30392,0.29516 l 29.035,-0.15302 0.44304,-105.66152 z m 191.34826,-158.9705 c 0,-0.89239 -12.00336,-14.07214 -17.78643,-19.52965 C 586.31193,112.53373 563.37097,96.901612 540.50747,85.824171 508.43649,70.28566 473.71847,60.627118 434.09918,56.221419 c -13.28741,-1.477571 -54.40364,-1.477571 -67.69105,0 -69.06118,7.679663 -126.07707,32.176454 -169.77051,72.941641 -5.39635,5.0347 -17.39234,18.20687 -17.39234,19.09763 0,0.25304 99.45377,0.46008 221.00838,0.46008 121.5546,0 221.00837,-0.20704 221.00837,-0.46008 z"
       id="path3133"
       style="fill:#bde993"
       inkscape:connector-curvature="0" />
    <path
       d="m 378.84709,782.9763 c -1.11372,-0.12438 -5.66985,-0.51146 -10.12473,-0.86017 -78.67797,-6.15854 -157.42239,-40.76506 -217.44312,-95.56164 -10.76558,-9.82856 -28.28417,-28.2497 -37.09523,-39.00637 C 54.987028,575.2796 24.51616,485.93627 26.704584,391.05056 27.369075,362.23953 29.99768,339.25294 35.514157,314.01271 63.310013,186.83486 152.25309,83.368795 272.30767,38.554576 351.19002,9.1092162 438.15185,7.8691956 517.98979,35.051305 c 26.13642,8.898562 47.6048,18.796269 70.87311,32.675093 97.44039,58.120182 164.12944,158.688712 180.7374,272.555922 5.4533,37.38878 5.57323,78.88961 0.33603,116.29469 -7.74102,55.28837 -27.79846,109.07785 -58.1134,155.84669 -59.12437,91.21524 -152.96124,151.79126 -259.20996,167.33207 -17.4203,2.54803 -25.46296,3.0857 -48.88798,3.26841 -12.56913,0.098 -23.76418,0.0765 -24.8779,-0.0478 z m 45.12736,-196.4761 c 38.64686,-5.95229 71.32171,-22.24424 98.19176,-48.95922 16.19866,-16.10517 26.6676,-30.89502 36.31287,-51.30052 15.62698,-33.06039 20.89063,-70.70939 15.00029,-107.29163 -7.6793,-47.69268 -35.8493,-91.90742 -75.724,-118.85401 -11.82587,-7.99171 -24.027,-14.44233 -35.75444,-18.90304 -8.97145,-3.41242 -7.94157,-7.22921 -7.94157,29.4318 0,29.32681 0.0723,31.64974 1.01247,32.52302 0.55686,0.51724 2.98321,2.08955 5.39187,3.49402 2.40867,1.40447 6.9648,4.51888 10.12473,6.92092 33.26966,25.29004 51.13055,65.79862 47.08779,106.79532 -7.04969,71.48912 -72.47915,120.79932 -141.27502,106.47038 -39.40841,-8.20806 -72.80713,-37.38651 -86.83024,-75.85835 -7.47661,-20.51177 -9.31298,-44.67091 -5.01387,-65.96231 6.58408,-32.60785 26.59415,-60.86407 55.85485,-78.87264 l 5.16818,-3.18077 0.28928,-31.21817 c 0.1591,-17.17 0.19634,-31.55023 0.0827,-31.95608 -0.34704,-1.2399 -2.1555,-0.85081 -9.21491,1.98256 -57.86096,23.22311 -99.41938,75.06047 -109.76404,136.91277 -5.14844,30.78329 -2.02765,63.73203 8.83245,93.2513 14.42115,39.19871 42.63712,72.76534 78.26526,93.10689 21.47847,12.26292 42.94316,19.23512 68.5368,22.26225 7.06443,0.83556 34.16233,0.31512 41.36675,-0.79449 z M 429.824,351.49856 c 0.74951,-130.25529 0.73118,-150.91672 -0.13436,-151.47609 -0.4386,-0.28346 -13.84818,-0.51945 -29.79906,-0.52443 -22.5128,-0.007 -29.13227,0.15606 -29.58562,0.72888 -0.57655,0.72845 0.14061,210.57845 0.72529,212.22851 0.20799,0.58699 6.38323,0.71118 29.35194,0.59033 l 29.08854,-0.15305 0.35327,-61.39415 z M 636.88304,169.49511 c 0,-0.97395 -4.14153,-7.44603 -8.87169,-13.86389 C 603.06992,121.79042 562.87493,92.897267 516.01163,75.123035 458.38327,53.26585 390.49346,48.581675 328.50162,62.185459 277.25308,73.431679 232.79715,95.703027 197.83455,127.6465 c -6.72084,6.14048 -14.55636,14.47914 -21.06348,22.41605 -5.41086,6.59976 -13.1468,18.19506 -13.1468,19.70557 0,0.11246 106.48323,0.20447 236.62939,0.20447 130.14616,0 236.62938,-0.21486 236.62938,-0.47748 z"
       id="path3131"
       style="fill:#b6e787"
       inkscape:connector-curvature="0" />
    <path
       d="M 379.71492,782.95003 C 300.26017,777.79345 227.36173,749.3208 166.78976,699.78575 97.913173,643.45927 50.677019,563.93338 33.78951,475.86902 22.481271,416.89923 24.632329,353.40168 39.865217,296.51891 79.805933,147.372 204.00365,37.485939 353.96918,18.61005 c 17.11569,-2.154322 27.64546,-2.789228 46.28448,-2.790782 22.21821,-0.0018 38.20372,1.243741 58.72343,4.575742 95.75706,15.549092 182.24136,68.852688 240.29291,148.10176 36.96776,50.46647 61.61355,110.9935 70.37815,172.83983 2.69034,18.98406 3.29002,27.52252 3.60712,51.35874 0.4117,30.94607 -0.6448,46.98743 -4.75353,72.17488 -16.78257,102.88098 -74.01154,194.18925 -158.23227,252.45802 -53.69455,37.14901 -112.22791,58.37569 -178.77379,64.83087 -6.57988,0.63826 -45.07329,1.22623 -51.78076,0.79092 z m 40.21319,-195.89122 c 57.76029,-6.92217 107.55114,-41.39013 135.20783,-93.5983 27.66924,-52.23182 27.71136,-117.39531 0.10939,-169.16148 -8.68834,-16.29456 -17.67587,-28.50527 -30.83843,-41.89795 -18.81336,-19.14227 -38.44784,-32.17046 -62.70742,-41.60862 -5.60562,-2.18086 -6.64344,-2.4231 -7.30089,-1.7041 -0.62574,0.68431 -0.70065,6.62458 -0.40818,32.36501 l 0.35823,31.52686 6.07484,3.78428 c 20.80583,12.96087 36.2137,30.22034 46.52243,52.11316 10.72903,22.78543 13.83545,48.99379 8.75927,73.90072 -9.29904,45.62694 -43.04452,81.60919 -87.10228,92.87573 -17.53019,4.48287 -37.73999,4.60265 -55.62994,0.32974 -15.81126,-3.77644 -33.34854,-12.50181 -46.19591,-22.98398 -5.11732,-4.17522 -13.87783,-13.02063 -18.02705,-18.20175 -14.50395,-18.11105 -23.64476,-41.02908 -25.93774,-65.0316 -4.31605,-45.17977 18.11689,-89.48725 57.32511,-113.22328 l 5.54981,-3.35977 0.38038,-17.70435 c 0.65069,-30.28455 0.50638,-46.42585 -0.41829,-46.7879 -0.43928,-0.17199 -3.36822,0.6649 -6.50876,1.85977 -41.21968,15.68264 -75.67269,46.98463 -95.4762,86.7441 -12.4822,25.06048 -18.24413,48.12934 -19.09436,76.44752 -0.90466,30.13091 5.62565,59.60458 19.22694,86.77828 24.76319,49.47379 71.8958,85.29696 124.68933,94.7702 15.1112,2.71155 37.22531,3.47146 51.44189,1.76771 z m 9.54804,-174.60884 c 0.1421,-0.40585 0.52993,-46.8278 0.86184,-103.15989 0.33191,-56.33208 0.76433,-104.08227 0.96093,-106.11152 l 0.35747,-3.68955 110.48655,0 110.48654,0 -0.39122,-1.62341 c -0.69507,-2.88413 -4.90031,-12.2009 -8.48712,-18.80334 C 609.42535,115.87713 534.18952,69.424459 446.97765,57.568883 428.68317,55.081933 420.66983,54.579917 399.6751,54.6055 c -20.7014,0.02522 -30.81326,0.704379 -48.30942,3.24466 -86.97086,12.627363 -161.01776,58.91267 -194.89489,121.82507 -3.81114,7.07757 -7.45549,15.16629 -8.19564,18.19037 l -0.39733,1.62341 110.48106,0 110.48105,0 0.3744,8.41218 c 0.20591,4.6267 0.51138,48.65781 0.6788,97.84692 0.16743,49.18912 0.45552,93.48588 0.64021,98.43726 l 0.33579,9.00251 29.17432,0 c 22.81595,0 29.23063,-0.16082 29.4327,-0.73791 z"
       id="path3129"
       style="fill:#ace375"
       inkscape:connector-curvature="0" />
    <path
       d="M 382.6077,782.95965 C 262.10439,776.45093 153.75567,713.35014 88.264265,611.53821 54.092037,558.4146 34.440758,500.725 28.138831,435.03003 26.915556,422.27789 27.104712,373.74704 28.427594,360.94382 34.281448,304.28855 49.897698,254.26176 76.523519,206.86811 92.962082,177.60767 112.24246,152.01862 136.3762,127.43124 157.00147,106.41828 175.75247,90.935594 198.62691,76.030883 249.47568,42.898432 304.26567,23.677009 366.11886,17.271369 c 12.81966,-1.327631 52.51101,-1.510301 65.08754,-0.29955 64.97728,6.255407 121.73433,26.349439 174.43462,61.756109 91.03208,61.159862 151.12489,159.606552 164.88029,270.114162 1.97449,15.86277 2.40639,22.76881 2.732,43.6843 0.33955,21.80987 -0.19955,34.81449 -2.19001,52.83326 -12.22743,110.68962 -71.91827,211.00668 -162.3756,272.89039 -14.38696,9.84237 -24.38319,15.81401 -39.78498,23.76686 -43.16767,22.29003 -88.00384,35.4017 -136.24993,39.84427 -9.57992,0.88213 -41.20067,1.57624 -50.04509,1.09848 z m 36.46504,-195.64704 c 43.05733,-4.88762 83.54696,-26.03346 111.80962,-58.39293 24.35024,-27.87993 38.59993,-59.72482 43.88526,-98.07381 1.26385,-9.17018 1.44883,-33.79505 0.32333,-43.04211 -4.16937,-34.25531 -17.18026,-65.53217 -38.30912,-92.09123 -19.23924,-24.18379 -45.3806,-43.68887 -73.58233,-54.90261 -7.71254,-3.06671 -9.43177,-3.45337 -9.83383,-2.21166 -0.13141,0.40585 -0.0637,15.07354 0.15042,32.59486 0.32005,26.18615 0.53179,31.94185 1.18951,32.33381 13.37583,7.9713 18.70944,11.97189 27.33491,20.50315 3.45693,3.41917 7.96831,8.34184 10.02531,10.93929 26.70667,33.7235 33.21576,78.49756 17.27598,118.83625 -15.83802,40.08119 -51.48085,68.3034 -93.75641,74.2369 -8.64724,1.21366 -27.33826,0.89784 -35.18342,-0.59449 -38.52,-7.32738 -69.92809,-31.59676 -86.36958,-66.73872 -13.28626,-28.39799 -15.23274,-60.67381 -5.41215,-89.74252 9.51102,-28.15239 27.77721,-50.19504 55.1337,-66.53238 l 2.69401,-1.60887 0.13259,-25.98898 c 0.21949,-43.02368 0.3389,-38.6545 -1.06201,-38.85858 -1.59861,-0.23288 -14.07921,4.8701 -22.65338,9.26234 -18.63849,9.54785 -32.06394,19.48965 -47.02912,34.82595 -10.46417,10.72367 -14.75948,16.04658 -22.44454,27.81414 -12.0587,18.46458 -21.26611,40.8569 -25.50474,62.02725 -2.70786,13.52473 -3.20114,19.09924 -3.20883,36.26243 -0.009,19.34619 0.98362,27.92437 5.19736,44.93075 15.68881,63.31892 64.09503,112.95491 126.3214,129.53064 10.36563,2.76118 21.10371,4.4545 35.08936,5.53337 4.45763,0.34387 21.98557,-0.19373 27.7867,-0.85224 z m 10.91001,-177.81428 c 0.17317,-2.02926 0.45307,-40.74742 0.62199,-86.04036 0.16893,-45.29295 0.47466,-84.01111 0.6794,-86.04036 l 0.37225,-3.68956 115.53508,0 115.53509,0 -0.48275,-3.68955 c -0.77816,-5.9473 -3.86319,-17.8756 -6.67966,-25.82687 C 639.97502,160.20144 605.10707,121.37236 556.05385,93.396632 501.06931,62.038165 429.93381,48.527511 361.20113,56.388558 c -51.69026,5.911882 -100.8577,24.037178 -139.5603,51.448102 -21.38489,15.14575 -41.22838,34.81888 -54.93325,54.46166 -14.30637,20.50488 -24.98014,45.62 -28.16195,66.26436 l -0.79612,5.16537 115.541,0 115.54099,0 0.37634,8.70735 c 0.20697,4.78904 0.52969,44.83544 0.71714,88.992 0.18745,44.15656 0.44099,80.61672 0.56341,81.02257 0.17427,0.5777 6.62271,0.73791 29.70106,0.73791 l 29.47846,0 0.31484,-3.68955 z"
       id="path3127"
       style="fill:#a4e168"
       inkscape:connector-curvature="0" />
    <path
       d="M 380.0042,782.65811 C 255.15348,775.8168 141.47889,705.0676 78.029356,594.71385 72.461275,585.02965 61.028229,561.81929 56.71898,551.45142 41.673982,515.25379 32.513483,478.1454 28.416628,436.80101 27.115708,423.67247 26.936744,378.09537 28.134991,365.07612 34.86938,291.90531 59.003156,226.85314 100.73567,169.38226 159.57392,88.354637 248.9757,34.048254 347.02651,19.774892 c 20.73268,-3.018078 28.79671,-3.555589 53.22715,-3.547868 24.42032,0.0077 32.69864,0.559511 53.22714,3.547868 29.06145,4.230506 62.13514,13.433962 88.80834,24.712809 11.85453,5.012723 35.84853,17.132428 46.28448,23.378935 78.94772,47.254674 138.28702,122.482404 166.51101,211.095204 13.23359,41.54869 18.99613,82.27006 18.15907,128.32275 -0.60077,33.05162 -4.12765,60.29797 -11.65316,90.02508 -14.11491,55.75632 -39.0708,105.1503 -76.05586,150.53374 -9.37041,11.49824 -33.75978,36.35915 -45.1803,46.05382 -73.72042,62.58006 -165.72214,93.94609 -260.35018,88.76088 z m 39.06854,-195.3455 c 43.05733,-4.88762 83.54696,-26.03346 111.80962,-58.39293 24.34697,-27.87619 38.49778,-59.48835 43.90156,-98.07381 1.45007,-10.35411 1.44654,-36.26298 -0.006,-46.28892 -4.05075,-27.95395 -13.17848,-52.5192 -27.8573,-74.9717 -11.22235,-17.16552 -23.7184,-30.90302 -39.9231,-43.88935 -4.13668,-3.3151 -8.30228,-6.66968 -9.2569,-7.45463 l -1.73566,-1.42716 84.70197,-0.0316 84.70198,-0.0317 -0.39145,-7.52668 C 660.97486,171.49772 597.50618,101.1483 503.52589,70.225328 478.7903,62.086412 451.27655,56.773294 423.73164,54.816444 410.76939,53.895577 376.89172,54.415742 365.5403,55.709926 323.36532,60.518325 288.82999,70.514028 255.03611,87.6936 c -44.65149,22.69918 -78.93486,54.56495 -99.7032,92.6723 -12.10161,22.20495 -20.00916,51.10472 -20.05191,73.28377 l -0.006,3.09725 84.51422,0.14956 84.51421,0.14954 -3.94278,2.95165 c -44.12479,33.03266 -70.62401,79.21901 -75.44033,131.48739 -1.01101,10.97186 -0.44814,31.61679 1.16307,42.65948 10.53501,72.20304 61.32276,130.16268 130.11326,148.48694 10.36563,2.76118 21.10371,4.4545 35.08936,5.53337 4.45764,0.34387 21.98557,-0.19373 27.7867,-0.85224 z m -34.15082,-59.33676 c -47.77123,-6.56211 -86.62202,-41.67109 -98.64969,-89.14851 -5.75034,-22.69863 -4.93346,-46.30755 2.34801,-67.86055 9.51102,-28.15239 27.77721,-50.19504 55.1337,-66.53238 l 2.69401,-1.60887 0,-9.65955 c 0,-5.31275 0.17171,-15.67956 0.38157,-23.03734 l 0.38157,-13.37779 10.83755,0 10.83754,0 0.37684,10.77349 c 0.20727,5.92542 0.56093,41.05734 0.78593,78.07093 l 0.40908,67.29743 29.63865,0.15294 29.63865,0.15294 0.2657,-1.3336 c 0.14613,-0.73347 0.41459,-34.27391 0.59656,-74.53431 0.18197,-40.26039 0.49465,-74.86101 0.69483,-76.89027 l 0.36397,-3.68955 10.53567,0 10.53567,0 0.37354,5.7557 c 0.20545,3.16564 0.37489,13.39308 0.37654,22.72764 0.003,19.54843 -0.76338,17.17457 7.04793,21.81824 18.71406,11.12517 35.8376,30.03115 45.60249,50.34941 10.78612,22.44318 14.17424,46.45765 10.07777,71.42973 -4.01178,24.4559 -15.5759,47.25994 -32.92965,64.93612 -18.52493,18.86915 -42.23675,30.80906 -67.88868,34.18486 -8.54106,1.12401 -22.37568,1.13458 -30.46575,0.0233 z"
       id="path3125"
       style="fill:#9edc62"
       inkscape:connector-curvature="0" />
    <path
       d="M 382.37495,782.72919 C 263.49206,776.43948 155.80386,714.338 90.124728,614.19469 52.917379,557.46334 31.682142,492.70002 27.60398,423.51862 26.749451,409.0225 27.242966,375.40994 28.501063,362.41964 34.243839,303.12344 51.293666,249.94895 80.459088,200.3745 129.4486,117.10371 208.49393,55.798287 300.41829,29.780091 384.33321,6.0288792 473.40812,12.977565 553.57098,49.528397 c 3.65937,1.668514 11.60005,5.632523 17.64596,8.808908 95.29517,50.065935 164.68404,139.393725 190.97432,245.850785 14.13499,57.23672 14.92292,122.4118 2.1885,181.01985 -13.36198,61.49609 -41.24357,117.90251 -82.57908,167.06293 -6.72456,7.99759 -28.98554,30.71095 -36.81786,37.56608 -53.30513,46.65483 -115.68867,76.57362 -183.69151,88.09742 -25.17569,4.2663 -54.83972,6.06863 -78.91636,4.79482 z m 36.68178,-195.4054 c 33.87404,-3.90605 64.75289,-16.99788 91.70111,-38.87892 7.1361,-5.79427 20.48886,-19.44027 26.34217,-26.92068 10.7565,-13.74659 22.2556,-34.23499 27.67153,-49.30347 11.08887,-30.85201 14.19117,-63.41047 8.99983,-94.45254 -4.91758,-29.40506 -17.66127,-58.09044 -36.45383,-82.05565 -2.67331,-3.40914 -8.86826,-10.3824 -13.76655,-15.49612 l -8.90597,-9.29767 75.23434,0 75.23438,0 0.41326,-7.87307 c 1.2454,-23.7258 -4.87815,-51.61685 -16.5791,-75.51284 C 624.29754,137.19102 576.85738,97.18837 514.05417,73.787258 454.88745,51.741139 383.7475,47.946981 320.41294,63.459646 219.75011,88.115206 146.97065,157.13716 136.20676,238.15552 c -1.16399,8.76118 -1.64469,20.68797 -1.09448,27.1551 l 0.45203,5.31296 74.87791,0.29516 74.87792,0.29516 -7.19358,7.37911 c -31.0301,31.83039 -48.28893,67.81972 -53.22174,110.98173 -0.38963,3.40915 -0.70293,11.90988 -0.69624,18.89051 0.0169,17.62057 2.38965,34.04784 7.46089,51.65373 13.65636,47.41092 46.95373,87.58791 90.76841,109.52221 22.34547,11.18649 42.27678,16.61312 67.98033,18.5088 4.90276,0.36158 22.82057,-0.15533 28.63852,-0.8262 z m -29.21708,-58.79277 c -30.22866,-3.7513 -53.35902,-14.91938 -73.20578,-35.34611 -18.43207,-18.9707 -30.17265,-43.96434 -33.27984,-70.84694 -4.77077,-41.27564 11.91901,-81.23848 44.78227,-107.22886 5.13842,-4.0638 14.36849,-10.16339 16.81667,-11.11313 1.26086,-0.48913 1.32392,-0.85696 1.68971,-9.85631 0.20898,-5.14152 0.38084,-12.46957 0.3819,-16.28457 l 0.002,-6.93636 10.9164,0 10.91641,0 0.35995,13.72514 c 0.19797,7.54882 0.52774,39.56175 0.73283,71.13984 l 0.37288,57.4147 29.86215,-0.15285 29.86216,-0.15286 0.40124,-63.16513 c 0.22068,-34.74083 0.57279,-66.68497 0.78246,-70.98699 l 0.38123,-7.82185 10.55473,0 10.55473,0 0.37621,7.52669 c 0.20693,4.13967 0.37728,11.44142 0.37857,16.22611 l 0.002,8.69942 1.91019,0.81437 c 6.36181,2.71222 18.46383,11.75859 26.93667,20.13543 17.45078,17.25303 28.92576,38.65074 33.74158,62.91881 1.18519,5.97246 1.33838,8.38358 1.31108,20.63535 -0.0339,15.20235 -0.62914,20.31417 -3.77227,32.39417 -11.75688,45.18551 -48.8041,79.23628 -94.84057,87.16971 -5.27445,0.90894 -24.54238,1.63644 -28.9278,1.09222 z"
       id="path3123"
       style="fill:#9add58"
       inkscape:connector-curvature="0" />
    <path
       d="M 373.64008,782.08083 C 348.87581,780.27927 321.96673,775.3861 297.2707,768.19359 275.05533,761.72365 257.16611,754.61232 235.07593,743.47005 206.61819,729.11592 184.14784,714.17914 159.50078,693.23269 148.40789,683.80539 126.2499,661.33548 116.49933,649.62596 67.693807,591.0152 37.787335,520.44801 29.431089,444.18012 25.934711,412.2685 26.478107,374.33092 30.881211,342.9388 38.79136,286.54306 58.780327,233.11568 89.740815,185.61629 140.55972,107.65023 218.43496,51.255765 307.39543,27.99858 393.72873,5.4282242 485.04728,15.057553 564.85282,55.146864 c 36.32603,18.247914 67.39385,40.728663 96.24892,69.645966 19.63821,19.68052 34.30675,37.63079 48.94433,59.89433 43.16756,65.65723 65.38452,144.60899 63.137,224.36842 -1.40722,49.93967 -9.89342,92.19181 -27.50733,136.95618 -4.52199,11.49236 -16.91911,37.22856 -23.17544,48.11177 -33.51569,58.30242 -80.92737,106.10237 -138.10762,139.23868 -48.63848,28.18635 -102.11122,44.59122 -158.97184,48.77104 -9.3811,0.68957 -42.03527,0.65651 -51.78076,-0.0525 z m 45.41665,-194.75704 c 33.87404,-3.90605 64.75289,-16.99788 91.70111,-38.87892 7.31494,-5.93947 20.5895,-19.54369 26.56716,-27.2269 20.49062,-26.33703 32.58024,-55.42498 37.29382,-89.72991 1.89957,-13.82485 2.29696,-22.61694 1.53384,-33.93504 -2.39729,-35.55484 -13.51661,-67.02359 -33.94909,-96.07918 -1.99565,-2.83788 -3.90844,-5.69359 -4.25066,-6.34603 -0.62139,-1.18471 -0.54086,-1.18626 61.57677,-1.18626 l 62.19893,0 0.87072,-3.09923 c 2.58216,-9.19064 3.84832,-25.34138 3.13549,-39.99474 -3.81523,-78.42897 -67.1096,-149.25643 -161.34109,-180.543313 -66.04387,-21.927994 -142.23628,-21.927994 -208.28014,0 -26.93035,8.941456 -53.6797,22.303444 -75.06562,37.497183 -49.86527,35.42708 -80.50305,83.91692 -85.81081,135.81116 -1.41215,13.80668 -0.0749,37.44944 2.6713,47.22971 l 0.87023,3.09923 62.22176,0 62.22175,0 -3.82903,5.60371 c -11.40922,16.69718 -17.0102,27.01986 -23.06444,42.50805 -8.38091,21.44035 -12.1427,41.71064 -12.1605,65.52645 -0.009,11.8278 0.19285,14.9414 1.56502,24.16059 0.86634,5.82066 2.09729,12.99315 2.73545,15.93886 11.47204,52.9542 46.22585,98.06094 93.96918,121.96198 22.34547,11.18649 42.27678,16.61312 67.98033,18.5088 4.90276,0.36158 22.82057,-0.15533 28.63852,-0.8262 z m -30.37107,-59.03217 c -35.43285,-3.78654 -67.43942,-23.67012 -86.9314,-54.00475 -12.59882,-19.60707 -19.16595,-43.12117 -19.12489,-68.4781 0.0478,-29.53639 14.16122,-61.79082 36.16331,-82.64681 8.10178,-7.67976 22.46342,-18.07207 26.48513,-19.16507 1.39064,-0.37794 1.46734,-0.62425 1.62746,-5.22599 l 0.16803,-4.82935 10.87688,0 10.87688,0 0.38156,13.37779 c 0.20987,7.35778 0.38191,23.23023 0.38234,35.27212 4.1e-4,12.04188 0.17295,32.8523 0.3834,46.24537 l 0.38264,24.35105 29.90389,0 29.90388,0 0.38373,-51.50615 c 0.21105,-28.32839 0.54704,-55.15881 0.74666,-59.62317 l 0.36292,-8.11701 10.62208,0 10.62209,0 0,4.08401 c 0,4.75478 0.33684,5.95157 1.67509,5.95157 0.53501,0 3.44307,1.53681 6.46237,3.41514 24.19171,15.04988 42.49345,38.37426 51.134,65.16701 3.61286,11.20277 5.01692,19.0701 5.37643,30.12549 1.12811,34.69016 -10.26848,65.52632 -33.08694,89.52453 -18.14722,19.08546 -41.07513,31.19293 -66.74749,35.24714 -6.92022,1.09285 -22.44062,1.53937 -29.03005,0.83518 z"
       id="path3121"
       style="fill:#92db4b"
       inkscape:connector-curvature="0" />
    <path
       d="M 376.53286,782.1205 C 315.67722,777.75048 259.26282,759.78744 208.17308,728.51278 134.91976,683.67067 79.232758,614.70898 49.727839,532.29743 31.639367,481.77367 24.317576,426.28532 28.285835,369.79874 33.434825,296.50494 58.687663,227.37041 101.8156,168.49677 131.51787,127.95041 168.94225,93.931741 212.51225,67.873767 c 9.48493,-5.672664 31.10619,-16.761971 41.19309,-21.12748 35.1331,-15.205249 70.48679,-24.434574 110.38857,-28.817703 11.60402,-1.274678 47.86161,-1.817862 60.55639,-0.907211 44.76879,3.211456 86.82004,13.790728 126.89574,31.924484 94.74507,42.87098 168.07183,124.647353 201.41922,224.629363 9.50984,28.51229 15.31281,55.86883 18.47028,87.07343 1.26773,12.52834 1.7749,51.30276 0.85835,65.62165 -6.64402,103.79847 -53.26331,198.6591 -130.84147,266.23523 -47.05014,40.98402 -106.49437,70.33455 -167.72216,82.81262 -11.91812,2.4289 -26.62134,4.6287 -39.92036,5.97265 -11.13776,1.12552 -46.10429,1.63202 -57.27704,0.8297 z m 42.52387,-194.79671 c 33.87404,-3.90605 64.75289,-16.99788 91.70111,-38.87892 7.31494,-5.93947 20.5895,-19.54369 26.56716,-27.2269 20.0336,-25.74962 32.34107,-54.92952 37.09922,-87.95893 0.67821,-4.70787 1.33971,-9.22388 1.47,-10.03558 0.13029,-0.8117 0.40428,-5.59336 0.60886,-10.62591 0.98264,-24.17255 -3.90908,-50.61452 -14.16996,-76.59511 l -1.22403,-3.09922 43.5279,-0.004 43.52789,-0.004 1.27323,-1.91452 c 4.65014,-6.99226 11.32089,-25.91059 13.997,-39.69556 2.5976,-13.38086 3.14712,-20.33923 2.785,-35.26938 -0.4003,-16.50444 -1.74857,-25.63717 -5.99205,-40.58762 C 639.07403,140.89871 564.43498,80.31688 469.68037,60.767162 c -25.94909,-5.353803 -40.23432,-6.740786 -69.42671,-6.740786 -23.8247,0 -31.4264,0.489673 -50.04509,3.223717 -79.30959,11.646141 -148.7788,51.845857 -186.12469,107.704707 -15.39381,23.02476 -24.62333,46.4669 -28.58781,72.61039 -1.35026,8.9042 -1.53551,34.73827 -0.30901,43.09397 2.77035,18.87344 9.81774,41.20264 15.88213,50.32146 l 1.27324,1.91453 43.24706,0.004 c 25.28251,0.002 43.24706,0.22503 43.24706,0.53605 0,0.29261 -1.18371,3.65704 -2.63047,7.47652 -8.04314,21.23412 -11.68202,39.94099 -12.22191,62.83087 -0.29992,12.71568 -0.23542,13.82331 1.51175,25.9603 1.00377,6.97286 2.34435,15.07511 2.97906,18.00502 11.46473,52.92266 46.23096,98.03791 93.9629,121.93325 22.34547,11.18648 42.27678,16.61312 67.98033,18.50879 4.90276,0.36159 22.82057,-0.15533 28.63852,-0.8262 z m -26.61358,-59.11517 c -48.24562,-2.49179 -91.76259,-38.35538 -105.02715,-86.5559 -3.6101,-13.11834 -5.6186,-31.53671 -4.62593,-42.42083 3.06793,-33.63836 18.79121,-62.95461 44.96891,-83.84514 5.22461,-4.16938 16.24781,-11.40069 17.38722,-11.40616 0.4909,-0.002 0.7232,1.03456 0.7232,3.22812 l 0,3.23158 -5.14397,3.52917 c -7.95098,5.45501 -18.57683,14.72741 -18.57683,16.21063 0,0.31021 -0.43087,1.04981 -0.9575,1.64357 -0.92618,1.04424 -0.15952,1.07956 23.43152,1.07956 l 24.38902,0 0.083,4.27988 c 0.0457,2.35393 0.24094,20.35157 0.43392,39.99475 l 0.35087,35.71486 30.1377,0.1528 30.1377,0.1528 0.38112,-11.61155 c 0.20963,-6.38635 0.38269,-22.26115 0.3846,-35.27734 0.002,-13.01618 0.17067,-25.85738 0.37503,-28.53599 l 0.37156,-4.87021 23.87998,0 23.87998,0 -0.83429,-1.7064 c -1.67629,-3.42858 -11.78422,-12.37441 -20.41073,-18.06413 l -4.2663,-2.81389 0.34308,-2.95573 c 0.1887,-1.62565 0.46959,-3.0848 0.6242,-3.24256 0.48065,-0.49043 9.59991,5.24118 15.66273,9.84428 23.43079,17.78946 39.71379,43.99869 45.52341,73.27478 1.16654,5.87848 1.33469,8.38342 1.28609,19.15953 -0.0603,13.38202 -0.95247,21.58539 -3.44379,31.66672 -9.77902,39.57161 -38.74723,71.45498 -76.60608,84.31518 -14.62611,4.96832 -27.96109,6.70053 -44.86231,5.82762 z"
       id="path3119"
       style="fill:#8bba5e"
       inkscape:connector-curvature="0" />
    <path
       d="M 376.53286,782.1205 C 315.67722,777.75048 259.26282,759.78744 208.17308,728.51278 134.91976,683.67067 79.232758,614.70898 49.727839,532.29743 31.639367,481.77367 24.317576,426.28532 28.285835,369.79874 33.434825,296.50494 58.687663,227.37041 101.8156,168.49677 131.51787,127.95041 168.94225,93.931741 212.51225,67.873767 c 9.48493,-5.672664 31.10619,-16.761971 41.19309,-21.12748 35.1331,-15.205249 70.48679,-24.434574 110.38857,-28.817703 11.60402,-1.274678 47.86161,-1.817862 60.55639,-0.907211 44.76879,3.211456 86.82004,13.790728 126.89574,31.924484 94.74507,42.87098 168.07183,124.647353 201.41922,224.629363 9.50984,28.51229 15.31281,55.86883 18.47028,87.07343 1.26773,12.52834 1.7749,51.30276 0.85835,65.62165 -6.64402,103.79847 -53.26331,198.6591 -130.84147,266.23523 -47.05014,40.98402 -106.49437,70.33455 -167.72216,82.81262 -11.91812,2.4289 -26.62134,4.6287 -39.92036,5.97265 -11.13776,1.12552 -46.10429,1.63202 -57.27704,0.8297 z m 35.58119,-193.63711 c 31.40186,-2.39412 59.89338,-12.26834 85.33701,-29.57498 11.61319,-7.89925 16.80841,-12.26863 27.22574,-22.89793 10.44845,-10.66107 14.69364,-15.92187 22.55218,-27.94754 13.41996,-20.53619 22.75007,-44.39132 26.83262,-68.60545 1.32537,-7.861 2.64743,-23.80471 2.6433,-31.87773 -0.0119,-23.27413 -4.89014,-47.56978 -14.37178,-71.57732 l -1.22403,-3.09922 43.5279,-0.004 43.52789,-0.004 1.27323,-1.91452 c 4.65014,-6.99226 11.32089,-25.91059 13.997,-39.69556 2.5976,-13.38086 3.14712,-20.33923 2.785,-35.26938 -0.4003,-16.50444 -1.74857,-25.63717 -5.99205,-40.58762 C 639.07403,140.89871 564.43498,80.31688 469.68037,60.767162 c -25.94909,-5.353803 -40.23432,-6.740786 -69.42671,-6.740786 -23.8247,0 -31.4264,0.489673 -50.04509,3.223717 -79.30959,11.646141 -148.7788,51.845857 -186.12469,107.704707 -15.39381,23.02476 -24.62333,46.4669 -28.58781,72.61039 -1.35026,8.9042 -1.53551,34.73827 -0.30901,43.09397 2.77035,18.87344 9.81774,41.20264 15.88213,50.32146 l 1.27324,1.91453 43.24706,0.004 c 25.28251,0.002 43.24706,0.22503 43.24706,0.53605 0,0.29261 -1.18371,3.65704 -2.63047,7.47652 -11.8661,31.32676 -15.21889,63.72679 -10.04488,97.06982 9.76069,62.90111 53.38993,117.15134 112.18697,139.49752 23.81037,9.04928 49.3788,12.86351 73.76588,11.0042 z m -19.6709,-60.27477 c -48.27089,-2.4931 -91.70822,-38.30463 -105.04664,-86.6048 -9.58419,-34.70565 -3.4527,-70.82122 16.99972,-100.13128 4.51405,-6.46902 15.96101,-18.87628 20.0666,-21.75001 1.43192,-1.00229 3.25437,-2.4408 4.04989,-3.1967 1.19718,-1.13755 1.99466,-1.35271 4.62845,-1.24872 2.71425,0.10717 3.64986,-0.16562 6.36411,-1.85558 1.75013,-1.08967 3.75268,-2.32819 4.45012,-2.75226 0.91232,-0.55472 1.3303,-1.47736 1.48995,-3.28884 l 0.22189,-2.51781 0.10108,2.78884 0.10108,2.78883 -5.14397,3.52917 c -7.95098,5.45501 -18.57683,14.72741 -18.57683,16.21063 0,0.31021 -0.43087,1.04981 -0.9575,1.64357 -0.92617,1.04423 -0.1624,1.07956 23.33951,1.07956 l 24.29702,0 0.38128,12.49208 c 0.2097,6.87064 0.38128,24.74874 0.38128,39.7291 0,20.39724 0.17434,27.41491 0.69427,27.94541 0.95745,0.97693 59.21414,1.02723 59.80507,0.0517 0.21878,-0.36122 0.50042,-15.56955 0.62584,-33.7963 0.12543,-18.22675 0.37799,-36.12808 0.56126,-39.78074 l 0.3332,-6.64119 23.90865,0 23.90866,0 -0.83429,-1.70641 c -1.66959,-3.41487 -11.78325,-12.3738 -20.33896,-18.01675 -4.00269,-2.63999 -4.19179,-2.86646 -4.13474,-4.95165 l 0.0598,-2.18513 0.55701,2.13078 c 0.4751,1.81745 1.17267,2.49021 4.74383,4.57505 3.50852,2.04826 4.7004,2.44426 7.3568,2.44426 3.11962,0 3.27056,0.0823 9.50402,5.18556 11.7403,9.61155 22.80256,23.99767 29.79312,38.74503 11.7055,24.69405 14.3617,52.72765 7.5658,79.84947 -11.84042,47.25398 -52.30022,83.29339 -99.56053,88.68315 -7.62074,0.8691 -12.93741,1.00437 -21.69585,0.55202 z"
       id="path3117"
       style="fill:#85d735"
       inkscape:connector-curvature="0" />
    <path
       d="M 380.0042,782.08225 C 307.89919,777.97746 238.38703,752.6447 180.11312,709.23461 150.92013,687.48779 123.64518,659.93298 101.8156,630.13356 64.302942,578.92529 39.938331,518.65513 31.176934,455.39636 28.328698,434.83161 27.963833,428.42466 27.983199,399.31516 28.00294,369.64348 28.369181,363.57437 31.4528,341.81921 44.918217,246.81972 93.62517,160.02813 167.21279,99.906632 188.76107,82.30157 209.8349,68.663384 235.41613,55.768021 277.05772,34.776705 318.97086,22.700594 366.69741,17.942948 c 13.04823,-1.300719 41.06583,-1.779592 54.38426,-0.929528 75.30686,4.80655 144.4059,30.669908 203.52331,76.177559 16.41161,12.633401 26.6115,21.821591 42.07369,37.900571 58.02482,60.3393 94.54009,138.9161 103.79716,223.35978 6.28144,57.29977 0.49027,115.30494 -16.78703,168.14256 -46.45318,142.06337 -169.88595,242.82581 -316.11828,258.05835 -18.89787,1.96857 -39.23325,2.47371 -57.56632,1.43001 z m 32.10985,-193.59886 c 31.40186,-2.39412 59.89338,-12.26834 85.33701,-29.57498 11.61319,-7.89925 16.80841,-12.26863 27.22574,-22.89793 10.44845,-10.66107 14.69364,-15.92187 22.55218,-27.94754 19.57854,-29.96048 29.51751,-64.21589 29.49706,-101.66384 -0.006,-11.05656 -0.34751,-15.89161 -2.09498,-29.664 l -0.39324,-3.09922 23.76858,0 c 22.35707,0 23.81347,-0.0641 24.52458,-1.07856 0.41581,-0.59321 1.18419,-1.32374 1.7076,-1.62341 1.7414,-0.99705 9.74815,-11.0216 14.32117,-17.93032 14.34912,-21.67789 23.07704,-44.45361 27.08863,-70.68845 1.53774,-10.05611 1.37482,-35.12453 -0.29582,-45.52396 -4.99745,-31.10816 -16.71274,-57.39867 -37.66665,-84.52844 -6.33958,-8.20809 -25.12281,-27.14706 -34.19457,-34.47812 C 548.12048,81.119608 491.05536,59.497461 425.71012,54.211806 c -11.28584,-0.91289 -39.86057,-0.918636 -50.91292,-0.01024 -43.11672,3.543783 -81.33648,13.717017 -116.57903,31.030687 -18.39226,9.035601 -36.19087,20.346487 -51.2022,32.538617 -9.77573,7.93979 -28.68012,27.22992 -35.53772,36.26285 -20.16782,26.56535 -31.9052,53.76144 -36.60999,84.82713 -1.40129,9.25273 -1.39287,33.9762 0.0148,43.27413 4.1197,27.21253 13.26008,50.57771 28.59303,73.09125 2.62321,3.8517 7.15617,9.56956 10.07323,12.70637 l 5.30376,5.70328 23.62765,0 c 12.99519,0 23.62764,0.12266 23.62764,0.27258 0,0.14993 -0.50463,4.33388 -1.12138,9.29767 -2.71019,21.81206 -1.96656,39.95409 2.56525,62.5841 4.79274,23.93301 15.23694,48.0427 29.69909,68.55832 14.57188,20.67126 36.08944,40.04362 58.24393,52.43729 29.45445,16.4774 63.83115,24.19733 96.61884,21.69755 z m -26.61357,-61.04753 c -27.25339,-3.82422 -50.60231,-15.85888 -69.44406,-35.79332 -8.98505,-9.50612 -14.91684,-18.01517 -20.53518,-29.45741 -7.18763,-14.63822 -10.93179,-29.21166 -12.11166,-47.14246 -1.71039,-25.99305 5.55157,-51.45035 20.98665,-73.57013 4.51405,-6.46902 15.96101,-18.87628 20.0666,-21.75001 1.43192,-1.00229 3.25171,-2.43138 4.04398,-3.17575 1.04057,-0.97768 2.13812,-1.35341 3.95347,-1.35341 1.38214,0 2.4262,0.21722 2.32013,0.4827 -0.10607,0.26549 -2.39905,2.45708 -5.09551,4.87021 -10.01065,8.95879 -16.55734,16.44284 -23.50819,26.87412 -4.1849,6.28037 -11.12963,20.31917 -11.49042,23.22791 -0.121,0.97556 -0.38542,2.04686 -0.58761,2.38066 -0.25033,0.41328 11.641,0.60691 37.27267,0.60691 l 37.64029,0 0.0747,6.64119 c 0.0411,3.65266 0.23633,12.61827 0.43392,19.92358 l 0.35926,13.28239 30.37419,0 30.37418,0 0.35633,-18.59534 c 0.19598,-10.22744 0.39124,-19.19305 0.43392,-19.92358 l 0.0776,-1.32824 37.35254,0 37.35255,0 -0.30285,-1.91857 c -0.16658,-1.05521 -1.31112,-4.32059 -2.54344,-7.2564 -6.99843,-16.67267 -21.2327,-34.92727 -37.14608,-47.63759 l -2.02431,-1.61686 2.91124,-0.007 c 2.79774,-0.006 3.15815,0.1956 9.24528,5.17901 19.29018,15.79249 33.33067,39.65796 38.88375,66.09309 1.47002,6.99792 1.58159,8.51078 1.57839,21.40291 -0.003,14.85749 -0.38437,18.44468 -3.21051,30.25369 -7.66841,32.04227 -29.19171,60.13333 -58.37577,76.18889 -10.33093,5.68354 -24.04713,10.40097 -36.44902,12.53595 -7.58807,1.30628 -25.83209,1.62568 -33.26697,0.58241 z"
       id="path3115"
       style="fill:#7bd425"
       inkscape:connector-curvature="0" />
    <path
       d="M 376.82214,781.54635 C 346.59803,779.34991 319.00723,774.21199 291.19586,765.60099 257.60514,755.20064 222.68653,738.2594 193.03743,717.97802 150.50272,688.88233 113.92433,650.75361 86.524426,606.95071 42.454725,536.49864 22.951336,456.1728 28.871439,369.50358 36.847125,252.74102 98.18223,145.35822 193.99846,80.406468 c 13.04065,-8.839978 23.44662,-15.002227 38.18469,-22.612373 42.01527,-21.694983 82.81402,-33.813996 132.48932,-39.35512 13.36705,-1.491052 57.79533,-1.491052 71.16238,0 20.65343,2.303825 35.56568,4.950422 53.8057,9.549323 56.60351,14.271586 108.21826,41.411562 153.31733,80.617042 10.03951,8.72756 33.54224,33.02074 42.18274,43.60151 40.60838,49.72708 67.21386,105.95339 79.85635,168.76342 4.93005,24.49324 6.69684,42.32664 7.09865,71.65132 0.33145,24.19387 -0.17577,36.71146 -2.19562,54.18362 -5.03523,43.55548 -16.62099,83.38382 -35.81314,123.11485 -16.11128,33.35314 -33.3611,59.36909 -57.92959,87.3686 -39.06288,44.51814 -91.98021,80.96472 -147.49416,101.58595 -31.03739,11.52917 -61.0867,18.46169 -94.56393,21.81635 -10.81736,1.08402 -46.74753,1.62057 -57.27704,0.85539 z m 45.33508,-193.89686 c 58.60083,-7.67277 109.00023,-44.06262 135.74807,-98.01409 11.05146,-22.29126 18.16759,-50.3284 19.21589,-75.70961 l 0.34745,-8.41218 5.42646,0 c 6.18471,0 7.86958,-0.55062 12.60355,-4.11901 23.33346,-17.58816 45.64564,-45.94245 57.78039,-73.42726 8.78606,-19.90018 13.38564,-40.07953 14.07985,-61.77123 0.69323,-21.6636 -2.49797,-41.67702 -9.947,-62.38186 -5.5966,-15.55594 -17.69594,-37.03361 -28.7146,-50.9717 C 589.57608,103.35619 527.06003,69.018803 454.63792,57.239192 425.01747,52.421363 391.4854,51.698377 360.62257,55.212121 299.32647,62.190705 241.58162,86.618004 200.0733,123.12787 c -13.44847,11.829 -28.62744,29.07561 -37.59176,42.71242 -38.96564,59.27573 -39.36747,129.26382 -1.07944,188.00756 11.3432,17.4034 27.45977,35.13123 42.29579,46.52435 5.87288,4.50999 7.60351,5.14141 14.09202,5.14141 l 5.42563,0 0,6.06849 c 0,6.65648 1.11133,17.06304 2.94533,27.58023 10.01138,57.4108 44.91886,105.17394 95.98773,131.33792 16.80981,8.61212 40.20379,15.54013 58.72343,17.39066 3.50027,0.34976 7.27534,0.74253 8.38906,0.87283 4.35734,0.50979 26.12327,-0.22745 32.89613,-1.11425 z m -38.68169,-60.87971 c -41.92339,-6.21609 -77.68122,-35.63252 -92.50035,-76.09605 -5.31082,-14.50116 -7.17249,-25.82831 -7.22822,-43.97946 -0.0357,-11.63381 0.0906,-13.30733 1.51481,-20.07117 2.83166,-13.44792 7.72718,-26.23666 13.95004,-36.44218 4.37056,-7.16774 5.93817,-9.0131 7.65649,-9.0131 1.72528,0 1.73436,0.30334 0.0778,2.60075 -3.56929,4.9502 -9.35787,15.86637 -12.82542,24.18628 -4.64127,11.13609 -8.99631,28.09878 -8.9988,35.04986 l -9e-4,2.5089 41.94531,0 41.94531,0 0,4.06914 c 0,3.16595 0.20312,4.14867 0.91515,4.42746 0.50333,0.19708 14.29273,0.35833 30.64311,0.35833 33.94603,0 30.92578,0.5439 30.92578,-5.56932 l 0,-3.28561 42.01271,0 42.0127,0 -0.41526,-3.98472 c -1.78999,-17.17627 -8.97454,-37.0649 -19.61897,-54.31021 l -3.73481,-6.05086 1.67573,0 c 1.43034,0 2.14243,0.66999 4.86251,4.57504 4.18157,6.00324 10.7415,19.52193 13.2486,27.30269 4.64028,14.40109 6.03886,25.69196 5.09497,41.13233 -1.54531,25.27855 -8.1215,44.53917 -22.07558,64.65586 -4.42325,6.3767 -14.55347,17.31977 -20.77265,22.43943 -16.61058,13.67391 -36.57807,22.57342 -57.24669,25.51485 -8.00792,1.13964 -25.31867,1.13009 -33.06341,-0.0182 z"
       id="path3113"
       style="fill:#72d115"
       inkscape:connector-curvature="0" />
    <path
       d="m 381.16131,615.31767 c -19.56597,-2.40122 -37.11173,-7.77327 -54.91455,-16.81338 -50.27671,-25.53003 -86.59781,-75.24372 -98.08598,-134.25301 -2.02199,-10.386 -4.50329,-32.44899 -3.54416,-31.51357 0.20537,0.20029 0.99301,3.65371 1.75032,7.67427 5.52101,29.31125 16.17232,54.16449 32.95213,76.88886 28.765,38.95553 70.96062,63.85781 119.33503,70.42709 10.25423,1.39253 32.94489,1.39253 43.19912,0 59.83305,-8.12537 110.20726,-44.73435 136.6006,-99.27318 7.3029,-15.09061 12.85088,-32.40028 15.70428,-48.99726 1.18493,-6.89225 2.12453,-8.71083 1.66415,-3.22096 -2.61689,31.20573 -8.6938,54.42496 -20.57159,78.60179 -9.84117,20.03138 -21.16832,35.76493 -37.33327,51.85638 -13.41243,13.35144 -27.80669,23.79609 -43.89785,31.8528 -14.71721,7.36884 -25.21329,11.0931 -40.53801,14.38406 -15.28818,3.28306 -36.95856,4.27138 -52.32022,2.38611 z m -9.98009,-186.82854 c -0.84917,-0.50466 -1.0112,-1.47772 -1.00458,-6.03291 0.005,-2.98717 0.16489,-6.02891 0.35677,-6.75945 l 0.34885,-1.32823 29.43887,0 29.43888,0 0,7.02078 c 0,5.85746 -0.15164,7.08015 -0.91515,7.3791 -1.62972,0.63811 -56.56771,0.37202 -57.66364,-0.27929 z m -87.51436,-30.94495 c 1.52569,-15.93536 7.52223,-34.20595 15.54495,-47.36326 4.37056,-7.16774 5.93817,-9.0131 7.65649,-9.0131 1.73038,0 1.73662,0.30918 0.0524,2.60075 -1.92908,2.62479 -8.02891,13.02003 -10.07827,17.17525 -5.01655,10.17138 -9.59483,23.52454 -11.72533,34.19851 -0.64361,3.2245 -1.32223,6.01381 -1.50805,6.19844 -0.18582,0.18464 -0.15983,-1.52383 0.0578,-3.79659 z m 231.51506,-2.51001 c -2.64127,-14.17587 -10.26038,-32.89774 -19.09876,-46.92999 l -4.36895,-6.93636 1.69466,0 c 1.45575,0 2.1358,0.64014 4.8239,4.54081 6.51022,9.44689 12.36986,22.63083 15.38559,34.61691 1.45906,5.79909 1.97354,8.70932 3.22658,18.25171 0.15988,1.21755 0.0924,2.21323 -0.15006,2.21262 -0.24241,-5.9e-4 -0.92325,-2.59068 -1.51296,-5.7557 z"
       id="path3111"
       style="fill:#519c0a"
       inkscape:connector-curvature="0" />
  </g>
</svg>
